<svg xmlns="http://www.w3.org/2000/svg" viewBox="0 0 32 32" fill="none">
  <defs>
    <linearGradient id="g" x1="0" y1="0" x2="1" y2="1">
      <stop offset="0%" stop-color="#ec4899"/>
      <stop offset="100%" stop-color="#f97316"/>
    </linearGradient>
  </defs>
  <path d="M16 2C16 2 10 8 10 16C10 20 11.5 23.5 13 26L14 28H18L19 26C20.5 23.5 22 20 22 16C22 8 16 2 16 2Z" fill="url(#g)"/>
  <circle cx="16" cy="14" r="2.5" fill="white"/>
  <path d="M10 16C10 16 7 18 6 22L10 20" fill="url(#g)" opacity="0.8"/>
  <path d="M22 16C22 16 25 18 26 22L22 20" fill="url(#g)" opacity="0.8"/>
  <path d="M13 26C13 26 14 30 16 30C18 30 19 26 19 26" fill="url(#g)" opacity="0.6"/>
</svg>
